<svg xmlns="http://www.w3.org/2000/svg" viewBox="0 0 64 64" fill="none">
	<rect width="64" height="64" rx="16" fill="#1c1917"/>
	<path d="M18 20.5A4.5 4.5 0 0 1 22.5 16h19.379a4.5 4.5 0 0 1 3.182 1.318l4.621 4.621A4.5 4.5 0 0 1 51 25.121V43.5A4.5 4.5 0 0 1 46.5 48h-24A4.5 4.5 0 0 1 18 43.5v-23Z" fill="#fefaf3"/>
	<path d="M45 22h-5a3 3 0 0 1-3-3v-5" stroke="#1c1917" stroke-width="2.5" stroke-linecap="round" stroke-linejoin="round"/>
	<path d="M29 18v28" stroke="#b45309" stroke-width="3" stroke-linecap="round" stroke-dasharray="2 4"/>
	<path d="M24 25.5h10" stroke="#1c1917" stroke-width="2.5" stroke-linecap="round"/>
	<path d="M24 32h16" stroke="#1c1917" stroke-width="2.5" stroke-linecap="round"/>
	<path d="M24 38.5h16" stroke="#1c1917" stroke-width="2.5" stroke-linecap="round"/>
	<path d="M37 25.5h3" stroke="#b45309" stroke-width="2.5" stroke-linecap="round"/>
	<path d="M43 32h-3" stroke="#b45309" stroke-width="2.5" stroke-linecap="round"/>
	<path d="M43 38.5h-3" stroke="#b45309" stroke-width="2.5" stroke-linecap="round"/>
</svg>